<?xml version="1.0" encoding="UTF-8"?>
<svg width="120" height="32" viewBox="0 0 120 32" fill="none" xmlns="http://www.w3.org/2000/svg">
  <path d="M22.4 7.2c-1.6-1.6-3.6-2.4-6-2.4s-4.4.8-6 2.4c-1.6 1.6-2.4 3.6-2.4 6s.8 4.4 2.4 6c1.6 1.6 3.6 2.4 6 2.4s4.4-.8 6-2.4c1.6-1.6 2.4-3.6 2.4-6s-.8-4.4-2.4-6zM16.4 18c-2.6 0-4.8-2.2-4.8-4.8s2.2-4.8 4.8-4.8 4.8 2.2 4.8 4.8-2.2 4.8-4.8 4.8z" fill="#5921CF"/>
  <path d="M38.4 4.8h-3.2v14.4h3.2V4.8zM51.2 4.8h-3.2v8.8c0 1.8-1.4 3.2-3.2 3.2s-3.2-1.4-3.2-3.2V4.8h-3.2v8.8c0 3.5 2.9 6.4 6.4 6.4s6.4-2.9 6.4-6.4V4.8z" fill="#404040"/>
  <path d="M67.2 4.8h-3.2v8.8c0 1.8-1.4 3.2-3.2 3.2s-3.2-1.4-3.2-3.2V4.8h-3.2v8.8c0 3.5 2.9 6.4 6.4 6.4s6.4-2.9 6.4-6.4V4.8zM83.2 13.6c0-3.5-2.9-6.4-6.4-6.4h-6.4v14.4h3.2v-4.8h3.2l3.2 4.8h3.8l-3.8-5.6c1.8-.8 3.2-2.6 3.2-4.8zm-9.6 0V10h3.2c1.1 0 2 .9 2 2s-.9 2-2 2h-3.2z" fill="#404040"/>
  <path d="M96 7.2v9.6h-6.4V7.2h-3.2v12h12.8v-12H96zM115.2 7.2h-9.6v3.2h3.2v8.8h3.2v-8.8h3.2V7.2z" fill="#404040"/>
</svg>
